# Blender v2.76 (sub 0) OBJ File: 'Device.blend'
# www.blender.org
o Cube_Cube.001
v 0.163309 2.942426 2.183227
v -0.233395 2.933486 2.191735
v 0.139899 2.302346 0.419022
v -0.256804 2.293406 0.427530
v 0.174799 2.563316 2.320621
v -0.221904 2.554376 2.329129
v 0.151389 1.923235 0.556417
v -0.245314 1.914295 0.564924
vn 0.028500 -0.939800 0.340600
vn 0.012500 0.341000 0.940000
vn -0.028500 0.939800 -0.340600
vn -0.012500 -0.341000 -0.940000
vn -0.999500 -0.022500 0.021400
vn 0.999500 0.022500 -0.021400
s off
f 2//1 4//1 3//1
f 8//2 7//2 3//2
f 8//3 6//3 5//3
f 6//4 2//4 1//4
f 3//5 7//5 5//5
f 8//6 4//6 2//6
f 1//1 2//1 3//1
f 4//2 8//2 3//2
f 7//3 8//3 5//3
f 5//4 6//4 1//4
f 1//5 3//5 5//5
f 6//6 8//6 2//6
