# Blender v2.76 (sub 0) OBJ File: 'Device.blend'
# www.blender.org
o Cylinder.004
v 0.023924 1.157455 3.028024
v 0.025857 1.091539 3.103200
v 0.018275 1.151361 3.022826
v 0.020208 1.085445 3.098001
v 0.011172 1.146192 3.018477
v 0.013106 1.080276 3.093652
v 0.002889 1.142148 3.015144
v 0.004822 1.076232 3.090319
v -0.006257 1.139385 3.012956
v -0.004324 1.073468 3.088131
v -0.015914 1.138007 3.011996
v -0.013980 1.072091 3.087171
v -0.025711 1.138068 3.012302
v -0.023777 1.072152 3.087477
v -0.035271 1.139566 3.013861
v -0.033337 1.073650 3.089037
v -0.044227 1.142444 3.016615
v -0.042294 1.076528 3.091790
v -0.052235 1.146590 3.020456
v -0.050302 1.080674 3.095631
v -0.058987 1.151845 3.025238
v -0.057054 1.085929 3.100413
v -0.064224 1.158008 3.030776
v -0.062291 1.092091 3.105951
v -0.067744 1.164841 3.036858
v -0.065811 1.098925 3.112033
v -0.069412 1.172082 3.043250
v -0.067479 1.106166 3.118425
v -0.069165 1.179452 3.049706
v -0.067231 1.113536 3.124882
v -0.067010 1.186669 3.055979
v -0.065077 1.120753 3.131154
v -0.063032 1.193455 3.061827
v -0.061099 1.127539 3.137002
v -0.057384 1.199550 3.067025
v -0.055450 1.133634 3.142201
v -0.050281 1.204718 3.071375
v -0.048348 1.138802 3.146550
v -0.041998 1.208762 3.074708
v -0.040065 1.142846 3.149883
v -0.032852 1.211526 3.076896
v -0.030919 1.145610 3.152071
v -0.023195 1.212904 3.077855
v -0.021262 1.146988 3.153031
v -0.013398 1.212842 3.077549
v -0.011465 1.146926 3.152725
v -0.003838 1.211344 3.075990
v -0.001905 1.145428 3.151165
v 0.005118 1.208467 3.073237
v 0.007051 1.142551 3.148412
v 0.013126 1.204321 3.069396
v 0.015059 1.138405 3.144571
v 0.019878 1.199065 3.064614
v 0.021812 1.133149 3.139789
v 0.025115 1.192903 3.059076
v 0.027048 1.126987 3.134251
v 0.028635 1.186070 3.052994
v 0.030568 1.120154 3.128169
v 0.030303 1.178829 3.046602
v 0.032237 1.112913 3.121777
v 0.030056 1.171458 3.040145
v 0.031989 1.105542 3.115320
v 0.027901 1.164241 3.033872
v 0.029835 1.098325 3.109048
vn 0.817000 -0.423000 -0.391900
vn 0.688900 -0.536200 -0.487800
vn 0.534300 -0.628700 -0.565000
vn 0.359100 -0.697100 -0.620500
vn 0.170200 -0.738700 -0.652100
vn -0.025300 -0.752000 -0.658700
vn -0.219800 -0.736300 -0.640000
vn -0.405800 -0.692300 -0.596600
vn -0.576300 -0.621800 -0.530400
vn -0.724600 -0.527300 -0.443700
vn -0.845100 -0.412600 -0.340000
vn -0.933100 -0.282000 -0.223300
vn -0.985200 -0.140600 -0.097900
vn -0.999500 0.006300 0.031200
vn -0.975400 0.152800 0.159100
vn -0.913700 0.293600 0.280900
vn -0.817000 0.423000 0.391900
vn -0.688900 0.536200 0.487800
vn -0.534300 0.628700 0.565000
vn -0.359200 0.697100 0.620500
vn -0.170200 0.738700 0.652100
vn 0.025300 0.752000 0.658700
vn 0.219800 0.736300 0.640000
vn 0.405800 0.692300 0.596600
vn 0.576300 0.621800 0.530400
vn 0.724600 0.527300 0.443700
vn 0.845100 0.412600 0.340000
vn 0.933100 0.282000 0.223200
vn 0.985200 0.140600 0.097900
vn 0.999500 -0.006300 -0.031200
vn 0.019300 -0.659200 0.751800
vn 0.913700 -0.293600 -0.280900
vn 0.975400 -0.152800 -0.159100
vn -0.019300 0.659200 -0.751800
vn -0.975400 0.152900 0.159100
vn -0.359100 0.697100 0.620500
vn -0.170200 0.738800 0.652100
vn 0.019500 -0.659200 0.751700
vn 0.019300 -0.659100 0.751800
vn 0.019700 -0.659200 0.751700
vn 0.019500 -0.659100 0.751800
vn 0.019400 -0.659100 0.751800
vn 0.019300 -0.659200 0.751700
vn 0.019100 -0.659200 0.751800
vn 0.019100 -0.659200 0.751700
vn 0.019300 -0.659300 0.751600
vn 0.019400 -0.659200 0.751700
vn 0.019400 -0.659200 0.751800
vn 0.975400 -0.152900 -0.159100
vn -0.019300 0.659200 -0.751700
vn -0.019200 0.659200 -0.751700
vn -0.019400 0.659200 -0.751800
vn -0.019500 0.659100 -0.751800
vn -0.019300 0.659100 -0.751800
vn -0.019200 0.659100 -0.751800
vn -0.019500 0.659200 -0.751700
vn -0.019400 0.659200 -0.751700
s off
f 2//1 4//1 3//1
f 3//2 4//2 6//2
f 5//3 6//3 8//3
f 8//4 10//4 9//4
f 10//5 12//5 11//5
f 11//6 12//6 14//6
f 14//7 16//7 15//7
f 15//8 16//8 18//8
f 17//9 18//9 20//9
f 19//10 20//10 22//10
f 22//11 24//11 23//11
f 24//12 26//12 25//12
f 25//13 26//13 28//13
f 27//14 28//14 30//14
f 30//15 32//15 31//15
f 31//16 32//16 34//16
f 34//17 36//17 35//17
f 36//18 38//18 37//18
f 38//19 40//19 39//19
f 39//20 40//20 42//20
f 42//21 44//21 43//21
f 43//22 44//22 46//22
f 45//23 46//23 48//23
f 48//24 50//24 49//24
f 50//25 52//25 51//25
f 52//26 54//26 53//26
f 53//27 54//27 56//27
f 55//28 56//28 58//28
f 58//29 60//29 59//29
f 59//30 60//30 62//30
f 38//31 22//31 54//31
f 63//32 64//32 2//32
f 62//33 64//33 63//33
f 31//34 47//34 63//34
f 1//1 2//1 3//1
f 5//2 3//2 6//2
f 7//3 5//3 8//3
f 7//4 8//4 9//4
f 9//5 10//5 11//5
f 13//6 11//6 14//6
f 13//7 14//7 15//7
f 17//8 15//8 18//8
f 19//9 17//9 20//9
f 21//10 19//10 22//10
f 21//11 22//11 23//11
f 23//12 24//12 25//12
f 27//13 25//13 28//13
f 29//14 27//14 30//14
f 29//35 30//35 31//35
f 33//16 31//16 34//16
f 33//17 34//17 35//17
f 35//18 36//18 37//18
f 37//19 38//19 39//19
f 41//36 39//36 42//36
f 41//37 42//37 43//37
f 45//22 43//22 46//22
f 47//23 45//23 48//23
f 47//24 48//24 49//24
f 49//25 50//25 51//25
f 51//26 52//26 53//26
f 55//27 53//27 56//27
f 57//28 55//28 58//28
f 57//29 58//29 59//29
f 61//30 59//30 62//30
f 6//38 4//38 2//38
f 2//39 64//39 62//39
f 62//40 60//40 58//40
f 58//39 56//39 54//39
f 54//41 52//41 50//41
f 50//42 48//42 46//42
f 46//31 44//31 42//31
f 42//43 40//43 46//43
f 38//44 36//44 34//44
f 34//31 32//31 30//31
f 30//31 28//31 22//31
f 26//45 24//45 22//45
f 22//46 20//46 18//46
f 18//47 16//47 14//47
f 14//43 12//43 10//43
f 10//39 8//39 6//39
f 6//48 2//48 54//48
f 62//43 58//43 54//43
f 54//39 50//39 38//39
f 46//39 40//39 38//39
f 38//48 34//48 22//48
f 28//38 26//38 22//38
f 22//31 18//31 14//31
f 14//47 10//47 6//47
f 2//31 62//31 54//31
f 50//31 46//31 38//31
f 34//31 30//31 22//31
f 22//31 14//31 6//31
f 6//31 54//31 22//31
f 1//32 63//32 2//32
f 61//49 62//49 63//49
f 63//50 1//50 3//50
f 3//51 5//51 7//51
f 7//51 9//51 11//51
f 11//52 13//52 7//52
f 15//34 17//34 23//34
f 19//53 21//53 23//53
f 23//34 25//34 27//34
f 27//34 29//34 31//34
f 31//54 33//54 35//54
f 35//55 37//55 39//55
f 39//54 41//54 47//54
f 43//54 45//54 47//54
f 47//50 49//50 51//50
f 51//50 53//50 47//50
f 55//56 57//56 59//56
f 59//50 61//50 63//50
f 63//50 3//50 15//50
f 7//54 13//54 15//54
f 17//51 19//51 23//51
f 23//34 27//34 31//34
f 31//50 35//50 47//50
f 41//50 43//50 47//50
f 47//50 53//50 55//50
f 55//50 59//50 47//50
f 3//50 7//50 15//50
f 15//34 23//34 63//34
f 35//57 39//57 47//57
f 47//34 59//34 63//34
f 63//34 23//34 31//34
