# Blender v2.76 (sub 0) OBJ File: 'Device.blend'
# www.blender.org
mtllib button.mtl
o Cylinder.004
v 0.023923 1.157456 2.713064
v 0.025857 1.091539 2.788239
v 0.018275 1.151361 2.707865
v 0.020208 1.085445 2.783041
v 0.011172 1.146193 2.703516
v 0.013105 1.080277 2.778692
v 0.002889 1.142149 2.700183
v 0.004822 1.076233 2.775359
v -0.006257 1.139385 2.697995
v -0.004324 1.073469 2.773170
v -0.015914 1.138007 2.697036
v -0.013981 1.072091 2.772211
v -0.025711 1.138069 2.697341
v -0.023777 1.072153 2.772517
v -0.035271 1.139567 2.698901
v -0.033338 1.073651 2.774076
v -0.044227 1.142444 2.701654
v -0.042294 1.076528 2.776829
v -0.052235 1.146590 2.705495
v -0.050302 1.080674 2.780671
v -0.058987 1.151846 2.710277
v -0.057054 1.085929 2.785452
v -0.064224 1.158008 2.715815
v -0.062291 1.092092 2.790991
v -0.067744 1.164841 2.721897
v -0.065811 1.098925 2.797073
v -0.069413 1.172082 2.728289
v -0.067479 1.106166 2.803465
v -0.069165 1.179453 2.734746
v -0.067231 1.113537 2.809921
v -0.067011 1.186670 2.741019
v -0.065077 1.120754 2.816194
v -0.063033 1.193456 2.746866
v -0.061099 1.127540 2.822042
v -0.057384 1.199550 2.752065
v -0.055450 1.133634 2.827240
v -0.050281 1.204719 2.756414
v -0.048348 1.138803 2.831589
v -0.041998 1.208763 2.759747
v -0.040065 1.142846 2.834922
v -0.032852 1.211527 2.761935
v -0.030919 1.145610 2.837111
v -0.023195 1.212904 2.762895
v -0.021262 1.146988 2.838070
v -0.013399 1.212843 2.762589
v -0.011465 1.146927 2.837764
v -0.003838 1.211345 2.761029
v -0.001905 1.145428 2.836205
v 0.005118 1.208467 2.758276
v 0.007051 1.142551 2.833452
v 0.013126 1.204321 2.754435
v 0.015059 1.138405 2.829610
v 0.019878 1.199066 2.749653
v 0.021811 1.133150 2.824829
v 0.025115 1.192903 2.744115
v 0.027048 1.126987 2.819290
v 0.028635 1.186070 2.738033
v 0.030568 1.120154 2.813208
v 0.030303 1.178829 2.731641
v 0.032237 1.112913 2.806816
v 0.030056 1.171459 2.725185
v 0.031989 1.105542 2.800360
v 0.027901 1.164242 2.718912
v 0.029835 1.098325 2.794087
vn 0.817000 -0.423000 -0.391900
vn 0.688900 -0.536200 -0.487800
vn 0.534300 -0.628700 -0.565000
vn 0.359100 -0.697100 -0.620500
vn 0.170200 -0.738700 -0.652100
vn -0.025300 -0.752000 -0.658700
vn -0.219800 -0.736300 -0.640000
vn -0.405800 -0.692300 -0.596600
vn -0.576300 -0.621800 -0.530400
vn -0.724600 -0.527300 -0.443700
vn -0.845100 -0.412600 -0.340000
vn -0.933100 -0.282000 -0.223300
vn -0.985200 -0.140600 -0.097900
vn -0.999500 0.006300 0.031200
vn -0.975400 0.152800 0.159100
vn -0.913700 0.293600 0.280900
vn -0.817000 0.423000 0.391900
vn -0.688900 0.536200 0.487800
vn -0.534300 0.628700 0.565000
vn -0.359100 0.697100 0.620500
vn -0.170200 0.738700 0.652100
vn 0.025300 0.752000 0.658700
vn 0.219800 0.736300 0.640000
vn 0.405800 0.692300 0.596600
vn 0.576300 0.621800 0.530400
vn 0.724600 0.527300 0.443700
vn 0.845100 0.412600 0.340000
vn 0.933100 0.282000 0.223200
vn 0.985200 0.140600 0.097900
vn 0.999500 -0.006300 -0.031200
vn 0.019300 -0.659200 0.751800
vn 0.913700 -0.293600 -0.280900
vn 0.975400 -0.152800 -0.159100
vn -0.019300 0.659200 -0.751700
vn 0.688900 -0.536100 -0.487800
vn -0.975400 0.152900 0.159100
vn -0.688900 0.536200 0.487900
vn -0.170200 0.738800 0.652100
vn 0.025200 0.752000 0.658700
vn 0.933100 0.282000 0.223300
vn 0.019300 -0.659200 0.751700
vn 0.019700 -0.659200 0.751700
vn 0.019200 -0.659200 0.751800
vn 0.019400 -0.659200 0.751700
vn 0.019300 -0.659000 0.751900
vn 0.019300 -0.659100 0.751800
vn 0.019100 -0.659200 0.751700
vn 0.019500 -0.659100 0.751800
vn 0.019100 -0.659200 0.751800
vn 0.019500 -0.659200 0.751700
vn 0.019200 -0.659100 0.751800
vn 0.019400 -0.659200 0.751800
vn 0.019200 -0.659200 0.751700
vn 0.019600 -0.659200 0.751700
vn 0.975400 -0.152900 -0.159100
vn -0.019200 0.659200 -0.751700
vn -0.019400 0.659200 -0.751800
vn -0.019400 0.659100 -0.751800
vn -0.019500 0.659100 -0.751800
vn -0.019500 0.659200 -0.751700
vn -0.019300 0.659000 -0.751900
vn -0.019200 0.659100 -0.751800
vn -0.019300 0.659200 -0.751800
vn -0.019400 0.659200 -0.751700
usemtl None
s off
f 2//1 4//1 3//1
f 4//2 6//2 5//2
f 6//3 8//3 7//3
f 8//4 10//4 9//4
f 10//5 12//5 11//5
f 12//6 14//6 13//6
f 14//7 16//7 15//7
f 16//8 18//8 17//8
f 18//9 20//9 19//9
f 20//10 22//10 21//10
f 22//11 24//11 23//11
f 24//12 26//12 25//12
f 26//13 28//13 27//13
f 28//14 30//14 29//14
f 30//15 32//15 31//15
f 32//16 34//16 33//16
f 34//17 36//17 35//17
f 36//18 38//18 37//18
f 38//19 40//19 39//19
f 40//20 42//20 41//20
f 42//21 44//21 43//21
f 44//22 46//22 45//22
f 46//23 48//23 47//23
f 48//24 50//24 49//24
f 50//25 52//25 51//25
f 52//26 54//26 53//26
f 54//27 56//27 55//27
f 56//28 58//28 57//28
f 58//29 60//29 59//29
f 60//30 62//30 61//30
f 30//31 22//31 6//31
f 64//32 2//32 1//32
f 62//33 64//33 63//33
f 31//34 55//34 63//34
f 1//1 2//1 3//1
f 3//35 4//35 5//35
f 5//3 6//3 7//3
f 7//4 8//4 9//4
f 9//5 10//5 11//5
f 11//6 12//6 13//6
f 13//7 14//7 15//7
f 15//8 16//8 17//8
f 17//9 18//9 19//9
f 19//10 20//10 21//10
f 21//11 22//11 23//11
f 23//12 24//12 25//12
f 25//13 26//13 27//13
f 27//14 28//14 29//14
f 29//36 30//36 31//36
f 31//16 32//16 33//16
f 33//17 34//17 35//17
f 35//37 36//37 37//37
f 37//19 38//19 39//19
f 39//20 40//20 41//20
f 41//38 42//38 43//38
f 43//39 44//39 45//39
f 45//23 46//23 47//23
f 47//24 48//24 49//24
f 49//25 50//25 51//25
f 51//26 52//26 53//26
f 53//27 54//27 55//27
f 55//40 56//40 57//40
f 57//29 58//29 59//29
f 59//30 60//30 61//30
f 6//41 4//41 2//41
f 2//41 64//41 6//41
f 62//42 60//42 58//42
f 58//43 56//43 62//43
f 54//44 52//44 50//44
f 50//45 48//45 46//45
f 46//46 44//46 42//46
f 42//46 40//46 46//46
f 38//47 36//47 40//47
f 34//48 32//48 30//48
f 30//31 28//31 22//31
f 26//49 24//49 22//49
f 22//41 20//41 14//41
f 18//50 16//50 14//50
f 14//46 12//46 10//46
f 10//46 8//46 14//46
f 6//51 64//51 62//51
f 62//52 56//52 6//52
f 54//53 50//53 56//53
f 46//41 40//41 30//41
f 36//31 34//31 30//31
f 28//54 26//54 22//54
f 20//46 18//46 14//46
f 14//44 8//44 6//44
f 6//31 56//31 46//31
f 50//44 46//44 56//44
f 36//46 30//46 40//46
f 22//31 14//31 6//31
f 6//31 46//31 30//31
f 63//32 64//32 1//32
f 61//55 62//55 63//55
f 63//34 1//34 3//34
f 3//56 5//56 7//56
f 7//56 9//56 11//56
f 11//57 13//57 7//57
f 15//58 17//58 19//58
f 19//34 21//34 27//34
f 23//59 25//59 27//59
f 27//60 29//60 31//60
f 31//56 33//56 39//56
f 35//61 37//61 39//61
f 39//62 41//62 43//62
f 43//57 45//57 39//57
f 47//58 49//58 55//58
f 51//60 53//60 55//60
f 55//34 57//34 59//34
f 59//63 61//63 55//63
f 63//63 3//63 15//63
f 7//63 13//63 15//63
f 15//34 19//34 31//34
f 23//59 27//59 21//59
f 33//64 35//64 39//64
f 39//34 45//34 47//34
f 49//56 51//56 55//56
f 55//57 61//57 63//57
f 3//34 7//34 15//34
f 19//63 27//63 31//63
f 31//63 39//63 47//63
f 47//63 55//63 31//63
f 63//63 15//63 31//63
