# Blender v2.76 (sub 0) OBJ File: 'Device.blend'
# www.blender.org
mtllib button.mtl
o Cylinder.004
v 0.023923 1.157456 2.713064
v 0.025857 1.091539 2.788239
v 0.018275 1.151361 2.707865
v 0.020208 1.085445 2.783041
v 0.011172 1.146193 2.703516
v 0.013105 1.080277 2.778692
v 0.002889 1.142149 2.700183
v 0.004822 1.076233 2.775359
v -0.006257 1.139385 2.697995
v -0.004324 1.073469 2.773170
v -0.015914 1.138007 2.697036
v -0.013981 1.072091 2.772211
v -0.025711 1.138069 2.697341
v -0.023777 1.072153 2.772517
v -0.035271 1.139567 2.698901
v -0.033338 1.073651 2.774076
v -0.044227 1.142444 2.701654
v -0.042294 1.076528 2.776829
v -0.052235 1.146590 2.705495
v -0.050302 1.080674 2.780671
v -0.058987 1.151846 2.710277
v -0.057054 1.085929 2.785452
v -0.064224 1.158008 2.715815
v -0.062291 1.092092 2.790991
v -0.067744 1.164841 2.721897
v -0.065811 1.098925 2.797073
v -0.069413 1.172082 2.728289
v -0.067479 1.106166 2.803465
v -0.069165 1.179453 2.734746
v -0.067231 1.113537 2.809921
v -0.067011 1.186670 2.741019
v -0.065077 1.120754 2.816194
v -0.063033 1.193456 2.746866
v -0.061099 1.127540 2.822042
v -0.057384 1.199550 2.752065
v -0.055450 1.133634 2.827240
v -0.050281 1.204719 2.756414
v -0.048348 1.138803 2.831589
v -0.041998 1.208763 2.759747
v -0.040065 1.142846 2.834922
v -0.032852 1.211527 2.761935
v -0.030919 1.145610 2.837111
v -0.023195 1.212904 2.762895
v -0.021262 1.146988 2.838070
v -0.013399 1.212843 2.762589
v -0.011465 1.146927 2.837764
v -0.003838 1.211345 2.761029
v -0.001905 1.145428 2.836205
v 0.005118 1.208467 2.758276
v 0.007051 1.142551 2.833452
v 0.013126 1.204321 2.754435
v 0.015059 1.138405 2.829610
v 0.019878 1.199066 2.749653
v 0.021811 1.133150 2.824829
v 0.025115 1.192903 2.744115
v 0.027048 1.126987 2.819290
v 0.028635 1.186070 2.738033
v 0.030568 1.120154 2.813208
v 0.030303 1.178829 2.731641
v 0.032237 1.112913 2.806816
v 0.030056 1.171459 2.725185
v 0.031989 1.105542 2.800360
v 0.027901 1.164242 2.718912
v 0.029835 1.098325 2.794087
vn 0.646200 -0.714000 0.269400
vn 0.563900 -0.802800 0.193700
vn 0.537400 0.101200 -0.837200
vn 0.460600 -0.878000 0.130400
vn 0.434100 0.026000 -0.900400
vn 0.340000 -0.936800 0.081900
vn 0.313500 -0.032900 -0.949000
vn 0.206800 -0.977100 0.050100
vn 0.180400 -0.073100 -0.980900
vn 0.066200 -0.997100 0.036100
vn 0.039700 -0.093200 -0.994800
vn -0.076400 -0.996200 0.040500
vn -0.102800 -0.092300 -0.990400
vn -0.215400 -0.974500 0.063200
vn -0.242000 -0.070500 -0.967700
vn -0.346000 -0.932500 0.103400
vn -0.372400 -0.028600 -0.927600
vn -0.462500 -0.872200 0.159200
vn -0.489000 0.031700 -0.871700
vn -0.560800 -0.795700 0.228900
vn -0.587300 0.108300 -0.802100
vn -0.637100 -0.705900 0.309500
vn -0.663600 0.197900 -0.721400
vn -0.688200 -0.606600 0.398100
vn -0.714800 0.297400 -0.632900
vn -0.712500 -0.501100 0.491100
vn -0.739100 0.402900 -0.539900
vn -0.708900 -0.393800 0.585100
vn -0.735500 0.510100 -0.445800
vn -0.677500 -0.288700 0.676400
vn -0.704100 0.615200 -0.354600
vn -0.619700 -0.189900 0.761500
vn -0.646100 0.714000 -0.269400
vn -0.537500 -0.101200 0.837200
vn -0.564000 0.802700 -0.193700
vn -0.434200 -0.026000 0.900400
vn -0.460600 0.878000 -0.130500
vn -0.313500 0.032900 0.949000
vn -0.340000 0.936900 -0.081900
vn -0.180300 0.073100 0.980900
vn -0.206700 0.977100 -0.050100
vn -0.039700 0.093200 0.994800
vn -0.066300 0.997100 -0.036100
vn 0.102900 0.092300 0.990400
vn 0.076300 0.996200 -0.040500
vn 0.242000 0.070600 0.967700
vn 0.215500 0.974400 -0.063200
vn 0.372400 0.028600 0.927600
vn 0.345900 0.932600 -0.103300
vn 0.489000 -0.031800 0.871700
vn 0.462600 0.872200 -0.159200
vn 0.587200 -0.108300 0.802100
vn 0.560700 0.795800 -0.228800
vn 0.663500 -0.198000 0.721500
vn 0.637000 0.706000 -0.309500
vn 0.714700 -0.297500 0.633000
vn 0.688300 0.606500 -0.398000
vn 0.739200 -0.402800 0.539800
vn 0.712500 0.501100 -0.491100
vn 0.735500 -0.510100 0.445800
vn 0.708900 0.393800 -0.585100
vn 0.704100 -0.615200 0.354600
vn 0.619700 0.189900 -0.761500
vn 0.677600 0.288700 -0.676400
usemtl None
s 1
f 2//1 4//2 3//3
f 4//2 6//4 5//5
f 6//4 8//6 7//7
f 8//6 10//8 9//9
f 10//8 12//10 11//11
f 12//10 14//12 13//13
f 14//12 16//14 15//15
f 16//14 18//16 17//17
f 18//16 20//18 19//19
f 20//18 22//20 21//21
f 22//20 24//22 23//23
f 24//22 26//24 25//25
f 26//24 28//26 27//27
f 28//26 30//28 29//29
f 30//28 32//30 31//31
f 32//30 34//32 33//33
f 34//32 36//34 35//35
f 36//34 38//36 37//37
f 38//36 40//38 39//39
f 40//38 42//40 41//41
f 42//40 44//42 43//43
f 44//42 46//44 45//45
f 46//44 48//46 47//47
f 48//46 50//48 49//49
f 50//48 52//50 51//51
f 52//50 54//52 53//53
f 54//52 56//54 55//55
f 56//54 58//56 57//57
f 58//56 60//58 59//59
f 60//58 62//60 61//61
f 30//28 22//20 6//4
f 64//62 2//1 1//63
f 62//60 64//62 63//64
f 31//31 55//55 63//64
f 1//63 2//1 3//3
f 3//3 4//2 5//5
f 5//5 6//4 7//7
f 7//7 8//6 9//9
f 9//9 10//8 11//11
f 11//11 12//10 13//13
f 13//13 14//12 15//15
f 15//15 16//14 17//17
f 17//17 18//16 19//19
f 19//19 20//18 21//21
f 21//21 22//20 23//23
f 23//23 24//22 25//25
f 25//25 26//24 27//27
f 27//27 28//26 29//29
f 29//29 30//28 31//31
f 31//31 32//30 33//33
f 33//33 34//32 35//35
f 35//35 36//34 37//37
f 37//37 38//36 39//39
f 39//39 40//38 41//41
f 41//41 42//40 43//43
f 43//43 44//42 45//45
f 45//45 46//44 47//47
f 47//47 48//46 49//49
f 49//49 50//48 51//51
f 51//51 52//50 53//53
f 53//53 54//52 55//55
f 55//55 56//54 57//57
f 57//57 58//56 59//59
f 59//59 60//58 61//61
f 6//4 4//2 2//1
f 2//1 64//62 6//4
f 62//60 60//58 58//56
f 58//56 56//54 62//60
f 54//52 52//50 50//48
f 50//48 48//46 46//44
f 46//44 44//42 42//40
f 42//40 40//38 46//44
f 38//36 36//34 40//38
f 34//32 32//30 30//28
f 30//28 28//26 22//20
f 26//24 24//22 22//20
f 22//20 20//18 14//12
f 18//16 16//14 14//12
f 14//12 12//10 10//8
f 10//8 8//6 14//12
f 6//4 64//62 62//60
f 62//60 56//54 6//4
f 54//52 50//48 56//54
f 46//44 40//38 30//28
f 36//34 34//32 30//28
f 28//26 26//24 22//20
f 20//18 18//16 14//12
f 14//12 8//6 6//4
f 6//4 56//54 46//44
f 50//48 46//44 56//54
f 36//34 30//28 40//38
f 22//20 14//12 6//4
f 6//4 46//44 30//28
f 63//64 64//62 1//63
f 61//61 62//60 63//64
f 63//64 1//63 3//3
f 3//3 5//5 7//7
f 7//7 9//9 11//11
f 11//11 13//13 7//7
f 15//15 17//17 19//19
f 19//19 21//21 27//27
f 23//23 25//25 27//27
f 27//27 29//29 31//31
f 31//31 33//33 39//39
f 35//35 37//37 39//39
f 39//39 41//41 43//43
f 43//43 45//45 39//39
f 47//47 49//49 55//55
f 51//51 53//53 55//55
f 55//55 57//57 59//59
f 59//59 61//61 55//55
f 63//64 3//3 15//15
f 7//7 13//13 15//15
f 15//15 19//19 31//31
f 23//23 27//27 21//21
f 33//33 35//35 39//39
f 39//39 45//45 47//47
f 49//49 51//51 55//55
f 55//55 61//61 63//64
f 3//3 7//7 15//15
f 19//19 27//27 31//31
f 31//31 39//39 47//47
f 47//47 55//55 31//31
f 63//64 15//15 31//31
