# Blender v2.76 (sub 0) OBJ File: 'Device.blend'
# www.blender.org
o Cylinder.001
v 0.201720 3.289594 2.351007
v -0.330190 3.276640 2.342388
v 0.199702 3.308045 2.447854
v -0.332209 3.295091 2.439234
v 0.198088 3.309234 2.545668
v -0.333823 3.296280 2.537048
v 0.196940 3.293114 2.640691
v -0.334970 3.280160 2.632071
v 0.196304 3.260305 2.729271
v -0.335607 3.247351 2.720651
v 0.196203 3.212068 2.808004
v -0.335708 3.199114 2.799385
v 0.196641 3.150256 2.873865
v -0.335270 3.137302 2.865245
v 0.197601 3.077246 2.924322
v -0.334309 3.064292 2.915702
v 0.199047 2.995842 2.957436
v -0.332863 2.982888 2.948817
v 0.200923 2.909173 2.971936
v -0.330988 2.896219 2.963316
v 0.203156 2.820569 2.967262
v -0.328754 2.807615 2.958643
v 0.205662 2.733436 2.943596
v -0.326249 2.720482 2.934977
v 0.208343 2.651123 2.901847
v -0.323567 2.638169 2.893227
v 0.211097 2.576791 2.843619
v -0.320814 2.563837 2.834999
v 0.213817 2.513299 2.771149
v -0.318093 2.500345 2.762530
v 0.216400 2.463085 2.687223
v -0.315510 2.450131 2.678604
v 0.218746 2.428080 2.595067
v -0.313164 2.415126 2.586447
v 0.220765 2.409628 2.498220
v -0.311145 2.396674 2.489600
v 0.222379 2.408439 2.400406
v -0.309531 2.395486 2.391786
v 0.223526 2.424559 2.305383
v -0.308384 2.411606 2.296763
v 0.224163 2.457368 2.216803
v -0.307748 2.444415 2.208183
v 0.224264 2.505606 2.138069
v -0.307647 2.492652 2.129450
v 0.223826 2.567417 2.072209
v -0.308085 2.554463 2.063589
v 0.222865 2.640428 2.021752
v -0.309045 2.627474 2.013132
v 0.221420 2.721832 1.988637
v -0.310491 2.708878 1.980018
v 0.219544 2.808501 1.974138
v -0.312367 2.795547 1.965519
v 0.217310 2.897105 1.978812
v -0.314600 2.884151 1.970192
v 0.214805 2.984238 2.002478
v -0.317106 2.971284 1.993858
v 0.212124 3.066551 2.044227
v -0.319787 3.053597 2.035608
v 0.209370 3.140883 2.102456
v -0.322541 3.127929 2.093836
v 0.206649 3.204375 2.174925
v -0.325261 3.191422 2.166306
v 0.204066 3.254589 2.258851
v -0.327844 3.241635 2.250232
vn -0.020900 0.982000 -0.187500
vn -0.024100 0.999600 -0.012500
vn -0.026700 0.985600 0.166900
vn -0.028500 0.937400 0.347000
vn -0.029200 0.852300 0.522200
vn -0.028800 0.728800 0.684200
vn -0.027200 0.568100 0.822500
vn -0.024200 0.376300 0.926200
vn -0.020000 0.164500 0.986200
vn -0.014900 -0.053000 0.998500
vn -0.009200 -0.262300 0.964900
vn -0.003400 -0.452400 0.891800
vn 0.002300 -0.616600 0.787300
vn 0.007600 -0.752000 0.659100
vn 0.012600 -0.857900 0.513700
vn 0.017000 -0.934600 0.355400
vn 0.020900 -0.982000 0.187500
vn 0.024100 -0.999600 0.012500
vn 0.026700 -0.985600 -0.166900
vn 0.028500 -0.937400 -0.347000
vn 0.029200 -0.852300 -0.522200
vn 0.028800 -0.728800 -0.684200
vn 0.027200 -0.568100 -0.822500
vn 0.024200 -0.376300 -0.926200
vn 0.020000 -0.164500 -0.986200
vn 0.014900 0.053000 -0.998500
vn 0.009200 0.262400 -0.964900
vn 0.003400 0.452400 -0.891800
vn -0.002300 0.616600 -0.787300
vn -0.007600 0.752000 -0.659100
vn -0.999600 -0.024300 -0.016200
vn -0.017000 0.934600 -0.355400
vn -0.012600 0.857900 -0.513700
vn 0.999600 0.024300 0.016200
vn -0.020000 0.164600 0.986200
s off
f 2//1 4//1 3//1
f 4//2 6//2 5//2
f 5//3 6//3 8//3
f 8//4 10//4 9//4
f 10//5 12//5 11//5
f 12//6 14//6 13//6
f 13//7 14//7 16//7
f 15//8 16//8 18//8
f 18//9 20//9 19//9
f 20//10 22//10 21//10
f 22//11 24//11 23//11
f 24//12 26//12 25//12
f 26//13 28//13 27//13
f 28//14 30//14 29//14
f 30//15 32//15 31//15
f 32//16 34//16 33//16
f 34//17 36//17 35//17
f 36//18 38//18 37//18
f 38//19 40//19 39//19
f 40//20 42//20 41//20
f 42//21 44//21 43//21
f 44//22 46//22 45//22
f 46//23 48//23 47//23
f 47//24 48//24 50//24
f 49//25 50//25 52//25
f 52//26 54//26 53//26
f 54//27 56//27 55//27
f 55//28 56//28 58//28
f 58//29 60//29 59//29
f 60//30 62//30 61//30
f 26//31 8//31 28//31
f 64//32 2//32 1//32
f 62//33 64//33 63//33
f 39//34 61//34 37//34
f 1//1 2//1 3//1
f 3//2 4//2 5//2
f 7//3 5//3 8//3
f 7//4 8//4 9//4
f 9//5 10//5 11//5
f 11//6 12//6 13//6
f 15//7 13//7 16//7
f 17//8 15//8 18//8
f 17//35 18//35 19//35
f 19//10 20//10 21//10
f 21//11 22//11 23//11
f 23//12 24//12 25//12
f 25//13 26//13 27//13
f 27//14 28//14 29//14
f 29//15 30//15 31//15
f 31//16 32//16 33//16
f 33//17 34//17 35//17
f 35//18 36//18 37//18
f 37//19 38//19 39//19
f 39//20 40//20 41//20
f 41//21 42//21 43//21
f 43//22 44//22 45//22
f 45//23 46//23 47//23
f 49//24 47//24 50//24
f 51//25 49//25 52//25
f 51//26 52//26 53//26
f 53//27 54//27 55//27
f 57//28 55//28 58//28
f 57//29 58//29 59//29
f 59//30 60//30 61//30
f 6//31 4//31 32//31
f 2//31 64//31 36//31
f 62//31 60//31 38//31
f 58//31 56//31 42//31
f 54//31 52//31 48//31
f 50//31 48//31 52//31
f 46//31 44//31 54//31
f 42//31 40//31 58//31
f 38//31 36//31 64//31
f 34//31 32//31 4//31
f 30//31 28//31 6//31
f 26//31 24//31 10//31
f 22//31 20//31 14//31
f 18//31 16//31 20//31
f 14//31 12//31 22//31
f 10//31 8//31 26//31
f 4//31 2//31 34//31
f 60//31 40//31 38//31
f 54//31 48//31 46//31
f 44//31 56//31 54//31
f 36//31 34//31 2//31
f 28//31 8//31 6//31
f 20//31 16//31 14//31
f 12//31 24//31 22//31
f 64//31 62//31 38//31
f 44//31 42//31 56//31
f 32//31 30//31 6//31
f 12//31 10//31 24//31
f 58//31 40//31 60//31
f 63//32 64//32 1//32
f 61//33 62//33 63//33
f 63//34 1//34 33//34
f 3//34 5//34 31//34
f 7//34 9//34 25//34
f 11//34 13//34 23//34
f 15//34 17//34 19//34
f 19//34 21//34 15//34
f 23//34 25//34 9//34
f 27//34 29//34 7//34
f 31//34 33//34 1//34
f 35//34 37//34 63//34
f 39//34 41//34 57//34
f 43//34 45//34 55//34
f 47//34 49//34 51//34
f 51//34 53//34 47//34
f 55//34 57//34 41//34
f 59//34 61//34 39//34
f 1//34 3//34 31//34
f 9//34 11//34 23//34
f 15//34 21//34 13//34
f 25//34 27//34 7//34
f 33//34 35//34 63//34
f 41//34 43//34 55//34
f 47//34 53//34 45//34
f 57//34 59//34 39//34
f 5//34 29//34 31//34
f 21//34 23//34 13//34
f 37//34 61//34 63//34
f 53//34 55//34 45//34
f 7//34 29//34 5//34
