# Blender v2.76 (sub 0) OBJ File: 'Device.blend'
# www.blender.org
o Cylinder.003
v 0.111812 0.594562 2.389178
v 0.131814 2.126575 3.674689
v 0.108930 0.575774 2.411613
v 0.128932 2.107787 3.697124
v 0.100395 0.557752 2.433224
v 0.120397 2.089765 3.718735
v 0.086534 0.541189 2.453179
v 0.106536 2.073201 3.738690
v 0.067880 0.526721 2.470712
v 0.087882 2.058733 3.756222
v 0.045151 0.514904 2.485148
v 0.065153 2.046917 3.770659
v 0.019219 0.506193 2.495933
v 0.039221 2.038205 3.781444
v -0.008918 0.500922 2.502653
v 0.011084 2.032934 3.788164
v -0.038180 0.499294 2.505049
v -0.018178 2.031306 3.790560
v -0.067442 0.501370 2.503029
v -0.047440 2.033383 3.788540
v -0.095580 0.507073 2.496671
v -0.075578 2.039085 3.782182
v -0.121512 0.516181 2.486219
v -0.101510 2.048194 3.771730
v -0.144241 0.528346 2.472075
v -0.124239 2.060359 3.757586
v -0.162895 0.543100 2.454782
v -0.142893 2.075112 3.740294
v -0.176755 0.559876 2.435006
v -0.156753 2.091888 3.720517
v -0.185291 0.578029 2.413505
v -0.165289 2.110041 3.699016
v -0.188173 0.596861 2.391106
v -0.168171 2.128873 3.676617
v -0.185291 0.615649 2.368671
v -0.165289 2.147661 3.654181
v -0.176755 0.633671 2.347060
v -0.156753 2.165683 3.632571
v -0.162895 0.650234 2.327105
v -0.142893 2.182247 3.612616
v -0.144241 0.664702 2.309573
v -0.124239 2.196714 3.595083
v -0.121512 0.676519 2.295136
v -0.101510 2.208531 3.580647
v -0.095580 0.685230 2.284351
v -0.075578 2.217242 3.569862
v -0.067442 0.690501 2.277632
v -0.047440 2.222514 3.563142
v -0.038180 0.692130 2.275235
v -0.018178 2.224142 3.560746
v -0.008918 0.690053 2.277255
v 0.011084 2.222065 3.562766
v 0.019220 0.684351 2.283613
v 0.039222 2.216363 3.569124
v 0.045151 0.675242 2.294065
v 0.065153 2.207254 3.579576
v 0.067881 0.663077 2.308209
v 0.087882 2.195089 3.593720
v 0.086534 0.648323 2.325502
v 0.106536 2.180336 3.611013
v 0.100395 0.631547 2.345279
v 0.120397 2.163560 3.630790
v 0.108930 0.613395 2.366779
v 0.128932 2.145407 3.652290
vn 0.995100 -0.070600 0.068700
vn 0.956900 -0.193900 0.216200
vn 0.881900 -0.309800 0.355400
vn 0.773000 -0.413700 0.481000
vn 0.634400 -0.501700 0.588100
vn 0.471400 -0.570500 0.672600
vn 0.290300 -0.617300 0.731200
vn 0.098000 -0.640400 0.761700
vn -0.098000 -0.638900 0.763000
vn -0.290300 -0.612900 0.734900
vn -0.471400 -0.563300 0.678600
vn -0.634400 -0.492000 0.596200
vn -0.773000 -0.401900 0.490900
vn -0.881900 -0.296200 0.366800
vn -0.956900 -0.179300 0.228500
vn -0.995100 -0.055400 0.081500
vn -0.995100 0.070600 -0.068700
vn -0.956900 0.193900 -0.216200
vn -0.881900 0.309800 -0.355400
vn -0.773000 0.413700 -0.481000
vn -0.634400 0.501700 -0.588100
vn -0.471400 0.570500 -0.672600
vn -0.290300 0.617300 -0.731200
vn -0.098000 0.640400 -0.761700
vn 0.098000 0.638900 -0.763000
vn 0.290300 0.612900 -0.734900
vn 0.471400 0.563300 -0.678600
vn 0.634400 0.492000 -0.596200
vn 0.773000 0.401900 -0.490900
vn 0.881900 0.296200 -0.366800
vn 0.010000 0.766000 0.642800
vn 0.995100 0.055400 -0.081500
vn 0.956900 0.179300 -0.228500
vn -0.010000 -0.766000 -0.642800
vn -0.881900 -0.296300 0.366800
vn -0.634300 0.501700 -0.588100
vn 0.009900 0.766000 0.642700
vn 0.010000 0.766000 0.642700
vn 0.010000 0.766100 0.642700
vn 0.010000 0.765900 0.642900
vn 0.010100 0.766000 0.642800
vn -0.010000 -0.766000 -0.642700
vn -0.009900 -0.766000 -0.642800
s off
f 1//1 2//1 4//1
f 3//2 4//2 6//2
f 5//3 6//3 8//3
f 8//4 10//4 9//4
f 9//5 10//5 12//5
f 12//6 14//6 13//6
f 13//7 14//7 16//7
f 16//8 18//8 17//8
f 18//9 20//9 19//9
f 19//10 20//10 22//10
f 21//11 22//11 24//11
f 23//12 24//12 26//12
f 26//13 28//13 27//13
f 28//14 30//14 29//14
f 29//15 30//15 32//15
f 31//16 32//16 34//16
f 33//17 34//17 36//17
f 35//18 36//18 38//18
f 38//19 40//19 39//19
f 39//20 40//20 42//20
f 41//21 42//21 44//21
f 43//22 44//22 46//22
f 46//23 48//23 47//23
f 47//24 48//24 50//24
f 49//25 50//25 52//25
f 52//26 54//26 53//26
f 54//27 56//27 55//27
f 55//28 56//28 58//28
f 57//29 58//29 60//29
f 60//30 62//30 61//30
f 38//31 22//31 54//31
f 64//32 2//32 1//32
f 62//33 64//33 63//33
f 31//34 47//34 15//34
f 3//1 1//1 4//1
f 5//2 3//2 6//2
f 7//3 5//3 8//3
f 7//4 8//4 9//4
f 11//5 9//5 12//5
f 11//6 12//6 13//6
f 15//7 13//7 16//7
f 15//8 16//8 17//8
f 17//9 18//9 19//9
f 21//10 19//10 22//10
f 23//11 21//11 24//11
f 25//12 23//12 26//12
f 25//13 26//13 27//13
f 27//35 28//35 29//35
f 31//15 29//15 32//15
f 33//16 31//16 34//16
f 35//17 33//17 36//17
f 37//18 35//18 38//18
f 37//19 38//19 39//19
f 41//20 39//20 42//20
f 43//36 41//36 44//36
f 45//22 43//22 46//22
f 45//23 46//23 47//23
f 49//24 47//24 50//24
f 51//25 49//25 52//25
f 51//26 52//26 53//26
f 53//27 54//27 55//27
f 57//28 55//28 58//28
f 59//29 57//29 60//29
f 59//30 60//30 61//30
f 6//31 4//31 2//31
f 2//31 64//31 6//31
f 62//37 60//37 58//37
f 58//38 56//38 62//38
f 54//39 52//39 50//39
f 50//40 48//40 46//40
f 46//38 44//38 38//38
f 42//41 40//41 38//41
f 38//41 36//41 34//41
f 34//38 32//38 38//38
f 30//41 28//41 26//41
f 26//38 24//38 30//38
f 22//38 20//38 18//38
f 18//40 16//40 14//40
f 14//38 12//38 6//38
f 10//31 8//31 6//31
f 6//31 64//31 62//31
f 62//31 56//31 54//31
f 54//31 50//31 38//31
f 44//31 42//31 38//31
f 38//41 32//41 30//41
f 30//31 24//31 22//31
f 22//38 18//38 6//38
f 12//31 10//31 6//31
f 6//31 62//31 54//31
f 50//31 46//31 38//31
f 38//31 30//31 22//31
f 18//31 14//31 6//31
f 6//31 54//31 22//31
f 63//32 64//32 1//32
f 61//33 62//33 63//33
f 63//34 1//34 3//34
f 3//34 5//34 7//34
f 7//42 9//42 11//42
f 11//42 13//42 7//42
f 15//34 17//34 23//34
f 19//34 21//34 23//34
f 23//34 25//34 27//34
f 27//42 29//42 31//42
f 31//43 33//43 35//43
f 35//34 37//34 39//34
f 39//34 41//34 47//34
f 43//34 45//34 47//34
f 47//42 49//42 51//42
f 51//34 53//34 47//34
f 55//34 57//34 59//34
f 59//34 61//34 63//34
f 63//34 3//34 15//34
f 7//34 13//34 15//34
f 17//34 19//34 23//34
f 23//34 27//34 15//34
f 31//34 35//34 47//34
f 41//34 43//34 47//34
f 47//34 53//34 55//34
f 55//42 59//42 47//42
f 3//34 7//34 15//34
f 15//34 27//34 31//34
f 35//34 39//34 47//34
f 47//34 59//34 63//34
f 63//34 15//34 47//34
