# Blender v2.76 (sub 0) OBJ File: 'Device.blend'
# www.blender.org
mtllib pen.mtl
o Cylinder.003
v 0.111812 0.789383 2.170866
v 0.131814 2.321395 3.456377
v 0.108930 0.770595 2.193301
v 0.128932 2.302607 3.478812
v 0.100395 0.752573 2.214912
v 0.120397 2.284585 3.500423
v 0.086534 0.736010 2.234867
v 0.106536 2.268022 3.520378
v 0.067880 0.721542 2.252399
v 0.087882 2.253554 3.537910
v 0.045151 0.709725 2.266836
v 0.065153 2.241737 3.552346
v 0.019219 0.701014 2.277621
v 0.039221 2.233026 3.563132
v -0.008918 0.695743 2.284340
v 0.011084 2.227755 3.569851
v -0.038180 0.694114 2.286736
v -0.018178 2.226126 3.572248
v -0.067442 0.696191 2.284717
v -0.047440 2.228203 3.570228
v -0.095580 0.701893 2.278359
v -0.075578 2.233906 3.563870
v -0.121512 0.711002 2.267907
v -0.101510 2.243014 3.553418
v -0.144241 0.723167 2.253763
v -0.124239 2.255179 3.539274
v -0.162895 0.737921 2.236470
v -0.142893 2.269933 3.521981
v -0.176755 0.754696 2.216694
v -0.156753 2.286709 3.502204
v -0.185291 0.772849 2.195193
v -0.165289 2.304862 3.480704
v -0.188173 0.791681 2.172794
v -0.168171 2.323694 3.458305
v -0.185291 0.810470 2.150358
v -0.165289 2.342482 3.435869
v -0.176755 0.828492 2.128748
v -0.156753 2.360504 3.414259
v -0.162895 0.845055 2.108793
v -0.142893 2.377067 3.394304
v -0.144241 0.859523 2.091260
v -0.124239 2.391535 3.376771
v -0.121512 0.871339 2.076824
v -0.101510 2.403352 3.362335
v -0.095580 0.880051 2.066039
v -0.075578 2.412063 3.351550
v -0.067442 0.885322 2.059319
v -0.047440 2.417334 3.344830
v -0.038180 0.886950 2.056923
v -0.018178 2.418963 3.342434
v -0.008918 0.884874 2.058943
v 0.011084 2.416886 3.344454
v 0.019220 0.879171 2.065301
v 0.039221 2.411184 3.350812
v 0.045151 0.870062 2.075753
v 0.065153 2.402075 3.361264
v 0.067881 0.857898 2.089897
v 0.087882 2.389910 3.375408
v 0.086534 0.843144 2.107189
v 0.106536 2.375156 3.392700
v 0.100395 0.826368 2.126966
v 0.120397 2.358380 3.412477
v 0.108930 0.808215 2.148467
v 0.128932 2.340228 3.433978
vn 0.734700 0.519700 0.436000
vn 0.720700 0.428500 0.544900
vn 0.707000 -0.622000 -0.336500
vn 0.679300 0.341000 0.649800
vn 0.665500 -0.709500 -0.231700
vn 0.612000 0.260700 0.746600
vn 0.598300 -0.789800 -0.134800
vn 0.521500 0.190500 0.831700
vn 0.507800 -0.860000 -0.049700
vn 0.411200 0.133200 0.901700
vn 0.397500 -0.917400 0.020300
vn 0.285400 0.090800 0.954100
vn 0.271700 -0.959600 0.072600
vn 0.148800 0.065200 0.986700
vn 0.135100 -0.985200 0.105200
vn 0.006800 0.057400 0.998300
vn -0.006800 -0.993100 0.116900
vn -0.135100 0.067400 0.988500
vn -0.148800 -0.983000 0.107100
vn -0.271700 0.095100 0.957700
vn -0.285300 -0.955400 0.076200
vn -0.397500 0.139300 0.906900
vn -0.411200 -0.911200 0.025500
vn -0.507800 0.198300 0.838300
vn -0.521500 -0.852100 -0.043100
vn -0.598300 0.269900 0.754400
vn -0.612000 -0.780500 -0.127000
vn -0.665600 0.351300 0.658400
vn -0.679300 -0.699100 -0.223000
vn -0.707000 0.439400 0.554100
vn -0.720700 -0.611000 -0.327300
vn -0.721000 0.530800 0.445400
vn -0.734700 -0.519700 -0.436100
vn -0.706900 0.622100 0.336600
vn -0.720700 -0.428500 -0.544900
vn -0.665600 0.709400 0.231700
vn -0.679300 -0.341000 -0.649800
vn -0.598300 0.789800 0.134800
vn -0.612000 -0.260700 -0.746600
vn -0.507800 0.860000 0.049700
vn -0.521500 -0.190400 -0.831700
vn -0.397500 0.917400 -0.020300
vn -0.411200 -0.133100 -0.901700
vn -0.271700 0.959600 -0.072600
vn -0.285300 -0.090900 -0.954100
vn -0.135100 0.985200 -0.105200
vn -0.148800 -0.065200 -0.986700
vn 0.006800 0.993100 -0.116800
vn -0.006800 -0.057300 -0.998300
vn 0.148800 0.983000 -0.107000
vn 0.135100 -0.067400 -0.988500
vn 0.285400 0.955400 -0.076200
vn 0.271700 -0.095100 -0.957700
vn 0.411200 0.911200 -0.025500
vn 0.397500 -0.139300 -0.906900
vn 0.521500 0.852100 0.043100
vn 0.507800 -0.198300 -0.838300
vn 0.612000 0.780600 0.127000
vn 0.598300 -0.269900 -0.754400
vn 0.679300 0.699100 0.223000
vn 0.665600 -0.351300 -0.658400
vn 0.720700 0.611000 0.327300
vn 0.721000 -0.530800 -0.445400
vn 0.707000 -0.439400 -0.554100
usemtl None
s 1
f 2//1 4//2 3//3
f 4//2 6//4 5//5
f 6//4 8//6 7//7
f 8//6 10//8 9//9
f 10//8 12//10 11//11
f 12//10 14//12 13//13
f 14//12 16//14 15//15
f 16//14 18//16 17//17
f 18//16 20//18 19//19
f 20//18 22//20 21//21
f 22//20 24//22 23//23
f 24//22 26//24 25//25
f 26//24 28//26 27//27
f 28//26 30//28 29//29
f 30//28 32//30 31//31
f 32//30 34//32 33//33
f 34//32 36//34 35//35
f 36//34 38//36 37//37
f 38//36 40//38 39//39
f 40//38 42//40 41//41
f 42//40 44//42 43//43
f 44//42 46//44 45//45
f 46//44 48//46 47//47
f 48//46 50//48 49//49
f 50//48 52//50 51//51
f 52//50 54//52 53//53
f 54//52 56//54 55//55
f 56//54 58//56 57//57
f 58//56 60//58 59//59
f 60//58 62//60 61//61
f 38//36 22//20 6//4
f 64//62 2//1 1//63
f 62//60 64//62 63//64
f 31//31 47//47 63//64
f 1//63 2//1 3//3
f 3//3 4//2 5//5
f 5//5 6//4 7//7
f 7//7 8//6 9//9
f 9//9 10//8 11//11
f 11//11 12//10 13//13
f 13//13 14//12 15//15
f 15//15 16//14 17//17
f 17//17 18//16 19//19
f 19//19 20//18 21//21
f 21//21 22//20 23//23
f 23//23 24//22 25//25
f 25//25 26//24 27//27
f 27//27 28//26 29//29
f 29//29 30//28 31//31
f 31//31 32//30 33//33
f 33//33 34//32 35//35
f 35//35 36//34 37//37
f 37//37 38//36 39//39
f 39//39 40//38 41//41
f 41//41 42//40 43//43
f 43//43 44//42 45//45
f 45//45 46//44 47//47
f 47//47 48//46 49//49
f 49//49 50//48 51//51
f 51//51 52//50 53//53
f 53//53 54//52 55//55
f 55//55 56//54 57//57
f 57//57 58//56 59//59
f 59//59 60//58 61//61
f 6//4 4//2 2//1
f 2//1 64//62 6//4
f 62//60 60//58 58//56
f 58//56 56//54 62//60
f 54//52 52//50 50//48
f 50//48 48//46 54//52
f 46//44 44//42 38//36
f 42//40 40//38 38//36
f 38//36 36//34 34//32
f 34//32 32//30 30//28
f 30//28 28//26 26//24
f 26//24 24//22 22//20
f 22//20 20//18 18//16
f 18//16 16//14 14//12
f 14//12 12//10 10//8
f 10//8 8//6 6//4
f 6//4 64//62 62//60
f 62//60 56//54 54//52
f 54//52 48//46 46//44
f 44//42 42//40 38//36
f 38//36 34//32 30//28
f 30//28 26//24 38//36
f 22//20 18//16 14//12
f 14//12 10//8 22//20
f 6//4 62//60 54//52
f 54//52 46//44 38//36
f 38//36 26//24 22//20
f 22//20 10//8 6//4
f 6//4 54//52 38//36
f 63//64 64//62 1//63
f 61//61 62//60 63//64
f 63//64 1//63 3//3
f 3//3 5//5 7//7
f 7//7 9//9 15//15
f 11//11 13//13 15//15
f 15//15 17//17 23//23
f 19//19 21//21 23//23
f 23//23 25//25 27//27
f 27//27 29//29 31//31
f 31//31 33//33 35//35
f 35//35 37//37 47//47
f 39//39 41//41 43//43
f 43//43 45//45 47//47
f 47//47 49//49 55//55
f 51//51 53//53 55//55
f 55//55 57//57 63//64
f 59//59 61//61 63//64
f 63//64 3//3 7//7
f 9//9 11//11 15//15
f 17//17 19//19 23//23
f 23//23 27//27 31//31
f 31//31 35//35 47//47
f 39//39 43//43 47//47
f 49//49 51//51 55//55
f 57//57 59//59 63//64
f 63//64 7//7 15//15
f 15//15 23//23 31//31
f 37//37 39//39 47//47
f 47//47 55//55 63//64
f 63//64 15//15 31//31
